<svg width="26" height="25" viewBox="0 0 26 25" fill="none" xmlns="http://www.w3.org/2000/svg">
<path d="M12.6667 2.25312C16.0487 2.25312 16.4498 2.26562 17.7861 2.32604C21.2188 2.48021 22.8222 4.0875 22.9784 7.45C23.0396 8.76771 23.0513 9.16354 23.0513 12.501C23.0513 15.8396 23.0386 16.2344 22.9784 17.5521C22.8211 20.9115 21.222 22.5219 17.7861 22.676C16.4498 22.7365 16.0508 22.749 12.6667 22.749C9.28468 22.749 8.88357 22.7365 7.54829 22.676C4.10717 22.5208 2.51223 20.9062 2.356 17.551C2.29478 16.2333 2.28211 15.8385 2.28211 12.5C2.28211 9.1625 2.29584 8.76771 2.356 7.44896C2.51328 4.0875 4.11245 2.47917 7.54829 2.325C8.88463 2.26562 9.28468 2.25312 12.6667 2.25312ZM12.6667 0C9.22663 0 8.79596 0.0145833 7.44485 0.075C2.84473 0.283333 0.288167 2.80208 0.0770557 7.34583C0.0147778 8.68021 0 9.10521 0 12.5C0 15.8948 0.0147778 16.3208 0.0760001 17.6542C0.287112 22.1937 2.83945 24.7167 7.44379 24.925C8.79596 24.9854 9.22663 25 12.6667 25C16.1067 25 16.5385 24.9854 17.8896 24.925C22.4855 24.7167 25.0484 22.1979 25.2563 17.6542C25.3186 16.3208 25.3334 15.8948 25.3334 12.5C25.3334 9.10521 25.3186 8.68021 25.2574 7.34687C25.0505 2.81146 22.495 0.284375 17.8906 0.0760417C16.5385 0.0145833 16.1067 0 12.6667 0V0ZM12.6667 6.08125C9.07463 6.08125 6.16234 8.95521 6.16234 12.5C6.16234 16.0448 9.07463 18.9198 12.6667 18.9198C16.2587 18.9198 19.171 16.0458 19.171 12.5C19.171 8.95521 16.2587 6.08125 12.6667 6.08125ZM12.6667 16.6667C10.335 16.6667 8.44446 14.8021 8.44446 12.5C8.44446 10.199 10.335 8.33333 12.6667 8.33333C14.9984 8.33333 16.8889 10.199 16.8889 12.5C16.8889 14.8021 14.9984 16.6667 12.6667 16.6667ZM19.4286 4.32812C18.5884 4.32812 17.9075 5 17.9075 5.82812C17.9075 6.65625 18.5884 7.32812 19.4286 7.32812C20.2678 7.32812 20.9475 6.65625 20.9475 5.82812C20.9475 5 20.2678 4.32812 19.4286 4.32812Z" fill="white"/>
</svg>
