<svg width="28" height="23" viewBox="0 0 28 23" fill="none" xmlns="http://www.w3.org/2000/svg">
<path d="M27.3654 2.55386C26.9255 2.74219 26.4733 2.90114 26.0112 3.03018C26.5583 2.43293 26.9754 1.73019 27.23 0.961176C27.2871 0.788802 27.2279 0.600125 27.0812 0.487389C26.9346 0.374566 26.7309 0.361051 26.5695 0.453385C25.5881 1.01523 24.5294 1.41901 23.4192 1.65512C22.301 0.600299 20.7821 0 19.2119 0C15.8976 0 13.2011 2.60286 13.2011 5.80219C13.2011 6.05417 13.2176 6.30475 13.2503 6.55185C9.13747 6.20326 5.31386 4.25188 2.68819 1.14279C2.59462 1.03197 2.45046 0.972249 2.30288 0.983671C2.1552 0.994831 2.02252 1.07522 1.94791 1.19877C1.41537 2.08086 1.13383 3.08973 1.13383 4.11621C1.13383 5.51429 1.65093 6.84079 2.56436 7.8773C2.28662 7.78444 2.0171 7.66839 1.75986 7.53055C1.62176 7.45635 1.45321 7.45748 1.31601 7.53342C1.17873 7.60937 1.09265 7.74904 1.08904 7.90171C1.0884 7.92743 1.0884 7.95315 1.0884 7.97922C1.0884 10.0661 2.25193 11.9449 4.03083 12.969C3.87801 12.9542 3.72527 12.9329 3.57353 12.9049C3.41709 12.876 3.25623 12.929 3.15073 13.0441C3.04505 13.1592 3.0101 13.3197 3.05878 13.4661C3.71723 15.4506 5.41249 16.9102 7.4619 17.3552C5.76213 18.3829 3.8183 18.9212 1.77774 18.9212C1.35196 18.9212 0.923745 18.8971 0.50465 18.8492C0.296457 18.8253 0.0973866 18.944 0.0264836 19.1351C-0.0444194 19.3263 0.0307287 19.5395 0.207851 19.6491C2.82927 21.2716 5.8604 22.1292 8.97336 22.1292C15.0931 22.1292 18.9214 19.3435 21.0552 17.0065C23.7161 14.0926 25.2422 10.2356 25.2422 6.42464C25.2422 6.26543 25.2397 6.10465 25.2346 5.9444C26.2844 5.18088 27.1883 4.25685 27.9238 3.19479C28.0355 3.03349 28.0234 2.82031 27.894 2.67183C27.7647 2.52326 27.5493 2.47522 27.3654 2.55386Z" fill="white"/>
</svg>
